# xmcd CD database file
#
# Track frame offsets:
#	151
#	54008
#	67829
#	85370
#	102167
#	121194
#	139719
#	160735
#	177574
#	197751
#	215540
#	233711
#
# Disc length: 3413 seconds
#
# Revision: 1
# Processed by: cddbd v1.5.1PL2 Copyright (c) Steve Scherf et al.
# Submitted via: CDex 1.51
#
DISCID=9b0d530c
DTITLE=Freddy Gerardo - 100% Merengue
DYEAR=1999
DGENRE=Salsa
TTITLE0=Megamix Club Version - 100% Merengue
TTITLE1=Abraza La Flaca - F. Gerardo
TTITLE2=El Pichoncito - Tipica Dominicana
TTITLE3=Nadie Se Muere - Merengue All-Stars
TTITLE4=Linda Eh - Conflicto
TTITLE5=Compadre Pedro Juan - Tipica Dominicana
TTITLE6=Megamix Radio Version - 100% Merengue
TTITLE7=El Topaito - Rokabanda
TTITLE8=Boca Chula - Merengue All-Stars
TTITLE9=Que Vaina - July July
TTITLE10=Juanita Morel - Tipica Dominicana
TTITLE11=El Baile Del Sua-Sua - Merengue All-Stars
EXTD=YEAR: 1999
EXTT0=
EXTT1=
EXTT2=
EXTT3=
EXTT4=
EXTT5=
EXTT6=
EXTT7=
EXTT8=
EXTT9=
EXTT10=
EXTT11=
PLAYORDER=
